<?xml version="1.0" encoding="iso-8859-1"?>
<!-- Generator: Adobe Illustrator 16.0.0, SVG Export Plug-In . SVG Version: 6.00 Build 0)  -->
<!DOCTYPE svg PUBLIC "-//W3C//DTD SVG 1.1//EN" "http://www.w3.org/Graphics/SVG/1.1/DTD/svg11.dtd">
<svg xmlns="http://www.w3.org/2000/svg" xmlns:xlink="http://www.w3.org/1999/xlink" version="1.1" id="Capa_1" x="0px" y="0px" width="50px" height="50px" viewBox="0 0 371.486 371.486" style="enable-background:new 0 0 371.486 371.486;" xml:space="preserve">
<g>
	<g>
		<g>
			<path d="M336.704,284.52H34.783c-15.366,0-27.862,12.502-27.862,27.862v31.243c0,15.366,12.496,27.861,27.862,27.861h301.921 c15.366,0,27.862-12.495,27.862-27.861v-31.243C364.566,297.021,352.07,284.52,336.704,284.52z M216.849,336.269H59.655v-14.934 h157.194V336.269z M316.312,340.25c-6.581,0-11.932-5.356-11.932-11.932c0-6.605,5.351-11.938,11.932-11.938 c6.605,0,11.938,5.332,11.938,11.938C328.255,334.894,322.929,340.25,316.312,340.25z" fill="#7E9EDD"/>
		</g>
		<g>
			<path d="M336.704,0H34.783C19.417,0,6.92,12.502,6.92,27.862v220.851c0,15.366,12.496,27.856,27.862,27.856h301.921 c15.366,0,27.862-12.49,27.862-27.856V27.868C364.566,12.502,352.07,0,336.704,0z M329.252,234.451H36.773V29.853h292.479 V234.451z" fill="#7E9EDD"/>
		</g>
	</g>
</g>
</svg>
